# xmcd CD database file
#
# Track frame offsets:
#	150
#	25693
#	45376
#	69189
#	85532
#	104099
#	130775
#	155776
#	172468
#	195116
#	211462
#	227062
#	242925
#	259946
#	274610
#	301909
#	321591
#	338482
#
# Disc length: 4748 seconds
#
# Revision: 2
# Processed by: cddbd v1.5.2PL0 Copyright (c) Steve Scherf et al.
# Submitted via: CDex 1.51
#
DISCID=fa128a12
DTITLE=Various Artist - Black Magic Black Hits No.1 CD2
DYEAR=2001
DGENRE=Blues
TTITLE0=Jennifer Lopez - Play
TTITLE1=Ice Cube - You Can Do It
TTITLE2=Angie Martinez - Mi Amor
TTITLE3=Cole - I Can Do Too
TTITLE4=Eric Benet - Love Dont Love Me
TTITLE5=Mighty - Lets Do It Again
TTITLE6=Missy Elliott - Get Ur Freak
TTITLE7=Snoop Dogg - Lay Low
TTITLE8=Spooks - Karma Hotel
TTITLE9=Coed - Anywhere
TTITLE10=Lady Shaw - Son Of A Bich
TTITLE11=Mystikal - Danger
TTITLE12=3 LW - Playas
TTITLE13=Da Muttz - Wassuup
TTITLE14=Blaque - 808
TTITLE15=Ja Rule - Put It On Me
TTITLE16=Chante Moore - Straight Up
TTITLE17=SHAGGY - Angel
EXTD=YEAR: 2001
EXTT0=
EXTT1=
EXTT2=
EXTT3=
EXTT4=
EXTT5=
EXTT6=
EXTT7=
EXTT8=
EXTT9=
EXTT10=
EXTT11=
EXTT12=
EXTT13=
EXTT14=
EXTT15=
EXTT16=
EXTT17=
PLAYORDER=
